<svg xmlns="http://www.w3.org/2000/svg" height="55" viewBox="0 0 58 58" width="55"><g id="Page-1" fill="none" fill-rule="evenodd"><g id="005---Holding-Book" fill-rule="nonzero"><path id="Shape" d="m14 47-1 11h-2c-1.10320187-.0032948-1.9967052-.8967981-2-2v-8z" fill="#ba3a23"></path><path id="Shape" d="m13 0 1.5 29-5.5-1v-26c.0032948-1.10320187.89679813-1.9967052 2-2z" fill="#ba3a23"></path><path id="Shape" d="m49 28v-26c-.0032948-1.10320187-.8967981-1.9967052-2-2h-34v58h34c1.1032019-.0032948 1.9967052-.8967981 2-2z" fill="#e04c34"></path><rect id="Rectangle-path" fill="#e07d02" height="16" rx="1" width="24" x="19" y="6"></rect><path id="Shape" d="m36 48h-12c-.5522847 0-1-.4477153-1-1s.4477153-1 1-1h12c.5522847 0 1 .4477153 1 1s-.4477153 1-1 1z" fill="#393f4b"></path><path id="Shape" d="m32 52h-8c-.5522847 0-1-.4477153-1-1s.4477153-1 1-1h8c.5522847 0 1 .4477153 1 1s-.4477153 1-1 1z" fill="#393f4b"></path><path id="Shape" d="m22 35.5c-.0012827.1678482-.01802.3352216-.05.5-.0749953.3622535-.2286118.7036234-.45 1-.0686865.0965036-.1456437.1868447-.23.27-.4697537.4685697-1.1065057.731185-1.77.73h-3c.6636932-.0021341 1.3008186.2605727 1.770123.729877.4693043.4693044.7320111 1.1064298.729877 1.770123-.0012827.1678482-.01802.3352216-.05.5-.0749953.3622535-.2286118.7036234-.45 1-.4711989.6306364-1.2127715 1.0014228-2 1h-3c1.3807119 0 2.5 1.1192881 2.5 2.5s-1.1192881 2.5-2.5 2.5h-7.5c-3.3137085 0-6-2.6862915-6-6v-10c0-4.418278 3.581722-8 8-8h1v4h7.5c.6636932-.0021341 1.3008186.2605727 1.770123.729877.4693043.4693044.7320111 1.1064298.729877 1.770123-.0012827.1678482-.01802.3352216-.05.5-.0749953.3622535-.2286118.7036234-.45 1-.4711989.6306364-1.2127715 1.0014228-2 1h3c1.3807119 0 2.5 1.1192881 2.5 2.5z" fill="#fad5a9"></path><path id="Shape" d="m58 32v10c0 3.3137085-2.6862915 6-6 6h-7.5c-1.3807119 0-2.5-1.1192881-2.5-2.5s1.1192881-2.5 2.5-2.5h-3c-.7872285.0014228-1.5288011-.3693636-2-1-.2213882-.2963766-.3750047-.6377465-.45-1-.03198-.1647784-.0487173-.3321518-.05-.5-.0021341-.6636932.2605727-1.3008186.729877-1.770123.4693044-.4693043 1.1064298-.7320111 1.770123-.729877h-3c-.6634943.001185-1.3002463-.2614303-1.77-.73-.0843563-.0831553-.1613135-.1734964-.23-.27-.2213882-.2963766-.3750047-.6377465-.45-1-.03198-.1647784-.0487173-.3321518-.05-.5 0-1.3807119 1.1192881-2.5 2.5-2.5h3c-.7872285.0014228-1.5288011-.3693636-2-1-.2213882-.2963766-.3750047-.6377465-.45-1-.03198-.1647784-.0487173-.3321518-.05-.5-.0021341-.6636932.2605727-1.3008186.729877-1.770123.4693044-.4693043 1.1064298-.7320111 1.770123-.729877h7.5v-4h1c4.418278 0 8 3.581722 8 8z" fill="#fad5a9"></path><g fill="#f6c58f"><path id="Shape" d="m18.95 31c-.0749953.3622535-.2286118.7036234-.45 1-.4711989.6306364-1.2127715 1.0014228-2 1h-6.5c-.55228475 0-1-.4477153-1-1s.44771525-1 1-1z"></path><path id="Shape" d="m21.95 36c-.0749953.3622535-.2286118.7036234-.45 1-.0686865.0965036-.1456437.1868447-.23.27-.4697537.4685697-1.1065057.731185-1.77.73h-9.5c-.55228475 0-1-.4477153-1-1s.44771525-1 1-1z"></path><path id="Shape" d="m49 32c0 .5522847-.4477153 1-1 1h-6.5c-.7872285.0014228-1.5288011-.3693636-2-1-.2213882-.2963766-.3750047-.6377465-.45-1h8.95c.5522847 0 1 .4477153 1 1z"></path><path id="Shape" d="m49 42c0 .5522847-.4477153 1-1 1h-6.5c-.7872285.0014228-1.5288011-.3693636-2-1-.2213882-.2963766-.3750047-.6377465-.45-1h8.95c.5522847 0 1 .4477153 1 1z"></path><path id="Shape" d="m18.95 41c-.0749953.3622535-.2286118.7036234-.45 1-.4711989.6306364-1.2127715 1.0014228-2 1h-6.25c-.55228475 0-1-.4477153-1-1s.44771525-1 1-1z"></path><path id="Shape" d="m49 37c0 .5522847-.4477153 1-1 1h-9.5c-.6634943.001185-1.3002463-.2614303-1.77-.73-.0843563-.0831553-.1613135-.1734964-.23-.27-.2213882-.2963766-.3750047-.6377465-.45-1h11.95c.5522847 0 1 .4477153 1 1z"></path></g></g></g></svg>