<svg xmlns="http://www.w3.org/2000/svg" xmlns:xlink="http://www.w3.org/1999/xlink" height="70" viewBox="0 0 512 512" width="70"><linearGradient id="lg1"><stop offset="0" stop-color="#f3f7ff"></stop><stop offset="1" stop-color="#cdd9ff"></stop></linearGradient><linearGradient id="SVGID_1_" gradientUnits="userSpaceOnUse" x1="256" x2="256" xlink:href="#lg1" y1="96.953" y2="581.015"></linearGradient><linearGradient id="SVGID_2_" gradientUnits="userSpaceOnUse" x1="240.287" x2="244.114" xlink:href="#lg1" y1="103.38" y2="161.738"></linearGradient><linearGradient id="SVGID_3_" gradientUnits="userSpaceOnUse" x1="253.886" x2="254.401" xlink:href="#lg1" y1="212.734" y2="220.586"></linearGradient><linearGradient id="lg2"><stop offset="0" stop-color="#fdc830"></stop><stop offset="1" stop-color="#f37335"></stop></linearGradient><linearGradient id="SVGID_4_" gradientUnits="userSpaceOnUse" x1="256" x2="256" xlink:href="#lg2" y1="160.824" y2="283.932"></linearGradient><linearGradient id="SVGID_5_" gradientUnits="userSpaceOnUse" x1="256" x2="256" xlink:href="#lg1" y1="261.643" y2="608.39"></linearGradient><linearGradient id="SVGID_6_" gradientUnits="userSpaceOnUse" x1="241.906" x2="242.384" xlink:href="#lg1" y1="78.188" y2="82.493"></linearGradient><linearGradient id="SVGID_7_" gradientUnits="userSpaceOnUse" x1="91.154" x2="95.594" xlink:href="#lg1" y1="246.774" y2="251.543"></linearGradient><linearGradient id="SVGID_8_" gradientUnits="userSpaceOnUse" x1="91.154" x2="95.594" xlink:href="#lg1" y1="302.939" y2="307.708"></linearGradient><linearGradient id="SVGID_9_" gradientUnits="userSpaceOnUse" x1="91.154" x2="95.594" xlink:href="#lg1" y1="359.104" y2="363.873"></linearGradient><linearGradient id="lg3"><stop offset="0" stop-color="#00c6ff"></stop><stop offset="1" stop-color="#0ff"></stop></linearGradient><linearGradient id="SVGID_11_" gradientUnits="userSpaceOnUse" x1="107.763" x2="106.934" xlink:href="#lg3" y1="271.054" y2="199.532"></linearGradient><linearGradient id="SVGID_12_" gradientUnits="userSpaceOnUse" x1="129.659" x2="128.83" xlink:href="#lg3" y1="271.054" y2="199.532"></linearGradient><linearGradient id="SVGID_14_" gradientUnits="userSpaceOnUse" x1="107.763" x2="106.934" xlink:href="#lg3" y1="327.219" y2="255.697"></linearGradient><linearGradient id="SVGID_15_" gradientUnits="userSpaceOnUse" x1="129.659" x2="128.83" xlink:href="#lg3" y1="327.219" y2="255.697"></linearGradient><linearGradient id="SVGID_17_" gradientUnits="userSpaceOnUse" x1="107.763" x2="106.934" xlink:href="#lg3" y1="383.384" y2="311.862"></linearGradient><linearGradient id="SVGID_18_" gradientUnits="userSpaceOnUse" x1="129.659" x2="128.83" xlink:href="#lg3" y1="383.384" y2="311.862"></linearGradient><linearGradient id="SVGID_19_" gradientUnits="userSpaceOnUse" x1="365.607" x2="370.047" xlink:href="#lg1" y1="246.774" y2="251.543"></linearGradient><linearGradient id="SVGID_20_" gradientUnits="userSpaceOnUse" x1="365.607" x2="370.047" xlink:href="#lg1" y1="302.939" y2="307.708"></linearGradient><linearGradient id="SVGID_21_" gradientUnits="userSpaceOnUse" x1="365.607" x2="370.047" xlink:href="#lg1" y1="359.104" y2="363.873"></linearGradient><linearGradient id="SVGID_22_" gradientUnits="userSpaceOnUse" x1="382.216" x2="381.387" xlink:href="#lg3" y1="271.054" y2="199.532"></linearGradient><linearGradient id="SVGID_23_" gradientUnits="userSpaceOnUse" x1="404.112" x2="403.283" xlink:href="#lg3" y1="271.054" y2="199.532"></linearGradient><linearGradient id="SVGID_24_" gradientUnits="userSpaceOnUse" x1="382.216" x2="381.387" xlink:href="#lg3" y1="327.219" y2="255.697"></linearGradient><linearGradient id="SVGID_25_" gradientUnits="userSpaceOnUse" x1="404.112" x2="403.283" xlink:href="#lg3" y1="327.219" y2="255.697"></linearGradient><linearGradient id="SVGID_26_" gradientUnits="userSpaceOnUse" x1="382.216" x2="381.387" xlink:href="#lg3" y1="383.384" y2="311.862"></linearGradient><linearGradient id="SVGID_27_" gradientUnits="userSpaceOnUse" x1="404.112" x2="403.283" xlink:href="#lg3" y1="383.384" y2="311.862"></linearGradient><linearGradient id="SVGID_28_" gradientUnits="userSpaceOnUse" x1="186.261" x2="190.701" xlink:href="#lg1" y1="257.896" y2="262.665"></linearGradient><linearGradient id="SVGID_29_" gradientUnits="userSpaceOnUse" x1="186.261" x2="190.701" xlink:href="#lg1" y1="312.634" y2="317.403"></linearGradient><linearGradient id="SVGID_30_" gradientUnits="userSpaceOnUse" x1="202.87" x2="202.041" xlink:href="#lg3" y1="282.176" y2="210.654"></linearGradient><linearGradient id="SVGID_31_" gradientUnits="userSpaceOnUse" x1="224.766" x2="223.937" xlink:href="#lg3" y1="282.176" y2="210.654"></linearGradient><linearGradient id="SVGID_32_" gradientUnits="userSpaceOnUse" x1="270.5" x2="274.94" xlink:href="#lg1" y1="257.896" y2="262.665"></linearGradient><linearGradient id="SVGID_33_" gradientUnits="userSpaceOnUse" x1="270.5" x2="274.94" xlink:href="#lg1" y1="312.634" y2="317.403"></linearGradient><linearGradient id="SVGID_34_" gradientUnits="userSpaceOnUse" x1="287.109" x2="286.28" xlink:href="#lg3" y1="282.176" y2="210.654"></linearGradient><linearGradient id="SVGID_35_" gradientUnits="userSpaceOnUse" x1="309.005" x2="308.176" xlink:href="#lg3" y1="282.176" y2="210.654"></linearGradient><linearGradient id="SVGID_36_" gradientUnits="userSpaceOnUse" x1="202.87" x2="202.041" xlink:href="#lg3" y1="336.915" y2="265.393"></linearGradient><linearGradient id="SVGID_37_" gradientUnits="userSpaceOnUse" x1="224.766" x2="223.937" xlink:href="#lg3" y1="336.915" y2="265.393"></linearGradient><linearGradient id="SVGID_38_" gradientUnits="userSpaceOnUse" x1="287.109" x2="286.28" xlink:href="#lg3" y1="336.915" y2="265.393"></linearGradient><linearGradient id="SVGID_39_" gradientUnits="userSpaceOnUse" x1="309.005" x2="308.176" xlink:href="#lg3" y1="336.915" y2="265.393"></linearGradient><linearGradient id="SVGID_40_" gradientUnits="userSpaceOnUse" x1="333.209" x2="243.679" y1="17.237" y2="113.996"><stop offset="0" stop-color="#ff512f"></stop><stop offset="1" stop-color="#dd2476"></stop></linearGradient><linearGradient id="SVGID_41_" gradientUnits="userSpaceOnUse" x1="257.037" x2="255.368" xlink:href="#lg2" y1="114.091" y2="247.552"></linearGradient><linearGradient id="SVGID_42_" gradientUnits="userSpaceOnUse" x1="268.908" x2="267.951" xlink:href="#lg1" y1="359.842" y2="366.538"></linearGradient><linearGradient id="SVGID_43_" gradientUnits="userSpaceOnUse" x1="228.174" x2="286.563" xlink:href="#lg1" y1="219.493" y2="219.493"></linearGradient><linearGradient id="SVGID_44_" gradientUnits="userSpaceOnUse" x1="264.363" x2="198.113" xlink:href="#lg3" y1="234.156" y2="107.156"></linearGradient><linearGradient id="SVGID_45_" gradientUnits="userSpaceOnUse" x1="251.105" x2="279.646" xlink:href="#lg3" y1="210.117" y2="253.487"></linearGradient><linearGradient id="SVGID_46_" gradientUnits="userSpaceOnUse" x1="235.619" x2="218.125" xlink:href="#lg1" y1="330.803" y2="252.539"></linearGradient><linearGradient id="SVGID_47_" gradientUnits="userSpaceOnUse" x1="237.779" x2="221.619" xlink:href="#lg3" y1="338.656" y2="266.362"></linearGradient><path d="m72.9 242.63h366.2v214.2h-366.2z" fill="url(#SVGID_1_)"></path><path d="m160.2 242.63h191.6v200.75h-191.6z" fill="url(#SVGID_2_)"></path><path d="m72.9 242.63h366.2v4.69h-366.2z" fill="url(#SVGID_3_)"></path><path d="m460.7 242.63h-409.4c-4.15 0-6.68-4.55-4.5-8.08l24.05-38.84c.96-1.56 2.67-2.51 4.5-2.51h361.31c1.83 0 3.54.95 4.5 2.51l24.05 38.84c2.17 3.53-.36 8.08-4.51 8.08z" fill="url(#SVGID_4_)"></path><path d="m346.53 455.46h-181.06v-253.63l90.53-58.89 90.53 58.89z" fill="url(#SVGID_5_)"></path><path d="m256 141.57-90.53 58.89v9.15l90.53-58.89 90.53 58.89v-9.15z" fill="url(#SVGID_6_)"></path><path d="m95.81 255.75h47.29v42.84h-47.29z" fill="url(#SVGID_7_)"></path><path d="m95.81 311.92h47.29v42.84h-47.29z" fill="url(#SVGID_8_)"></path><path d="m95.81 368.08h47.29v42.84h-47.29z" fill="url(#SVGID_9_)"></path><path d="m95.81 255.75h47.29v42.84h-47.29z" fill="url(#SVGID_7_)"></path><path d="m95.81 255.75h45.92v41.47h-45.92z" fill="#fff"></path><path d="m98.2 258.14h19.25v36.7h-19.25z" fill="url(#SVGID_11_)"></path><path d="m120.09 258.14h19.25v36.7h-19.25z" fill="url(#SVGID_12_)"></path><path d="m95.81 311.92h47.29v42.84h-47.29z" fill="url(#SVGID_8_)"></path><path d="m95.81 311.92h45.92v41.47h-45.92z" fill="#fff"></path><path d="m98.2 314.3h19.25v36.7h-19.25z" fill="url(#SVGID_14_)"></path><path d="m120.09 314.3h19.25v36.7h-19.25z" fill="url(#SVGID_15_)"></path><path d="m95.81 368.08h47.29v42.84h-47.29z" fill="url(#SVGID_9_)"></path><path d="m95.81 368.08h45.92v41.47h-45.92z" fill="#fff"></path><path d="m98.2 370.47h19.25v36.7h-19.25z" fill="url(#SVGID_17_)"></path><path d="m120.09 370.47h19.25v36.7h-19.25z" fill="url(#SVGID_18_)"></path><path d="m370.26 255.75h47.29v42.84h-47.29z" fill="url(#SVGID_19_)"></path><path d="m370.26 311.92h47.29v42.84h-47.29z" fill="url(#SVGID_20_)"></path><path d="m370.26 368.08h47.29v42.84h-47.29z" fill="url(#SVGID_21_)"></path><path d="m370.26 255.75h45.92v41.47h-45.92z" fill="#fff"></path><path d="m372.65 258.14h19.25v36.7h-19.25z" fill="url(#SVGID_22_)"></path><path d="m394.55 258.14h19.25v36.7h-19.25z" fill="url(#SVGID_23_)"></path><path d="m370.26 311.92h45.92v41.47h-45.92z" fill="#fff"></path><path d="m372.65 314.3h19.25v36.7h-19.25z" fill="url(#SVGID_24_)"></path><path d="m394.55 314.3h19.25v36.7h-19.25z" fill="url(#SVGID_25_)"></path><path d="m370.26 368.08h45.92v41.47h-45.92z" fill="#fff"></path><path d="m372.65 370.47h19.25v36.7h-19.25z" fill="url(#SVGID_26_)"></path><path d="m394.55 370.47h19.25v36.7h-19.25z" fill="url(#SVGID_27_)"></path><path d="m190.92 266.87h47.29v42.84h-47.29z" fill="url(#SVGID_28_)"></path><path d="m190.92 321.61h47.29v42.84h-47.29z" fill="url(#SVGID_29_)"></path><path d="m190.92 266.87h45.92v41.47h-45.92z" fill="#fff"></path><path d="m193.31 269.26h19.25v36.7h-19.25z" fill="url(#SVGID_30_)"></path><path d="m215.2 269.26h19.25v36.7h-19.25z" fill="url(#SVGID_31_)"></path><path d="m275.16 266.87h47.29v42.84h-47.29z" fill="url(#SVGID_32_)"></path><path d="m275.16 321.61h47.29v42.84h-47.29z" fill="url(#SVGID_33_)"></path><path d="m275.16 266.87h45.92v41.47h-45.92z" fill="#fff"></path><path d="m277.54 269.26h19.25v36.7h-19.25z" fill="url(#SVGID_34_)"></path><path d="m299.44 269.26h19.25v36.7h-19.25z" fill="url(#SVGID_35_)"></path><path d="m190.92 321.61h45.92v41.47h-45.92z" fill="#fff"></path><path d="m193.31 324h19.25v36.7h-19.25z" fill="url(#SVGID_36_)"></path><path d="m215.2 324h19.25v36.7h-19.25z" fill="url(#SVGID_37_)"></path><path d="m275.16 321.61h45.92v41.47h-45.92z" fill="#fff"></path><path d="m277.54 324h19.25v36.7h-19.25z" fill="url(#SVGID_38_)"></path><path d="m299.44 324h19.25v36.7h-19.25z" fill="url(#SVGID_39_)"></path><path d="m256 55.17h55.93v30.58h-55.93z" fill="url(#SVGID_40_)"></path><path d="m254.21 55.17h3.58v76.04h-3.58z" fill="#679fe4"></path><path d="m252.81 125.24-97.47 62.59c-1.69 1.08-2.71 2.95-2.71 4.96v8.45c0 4.66 5.16 7.48 9.08 4.96l94.29-60.54 94.28 60.54c3.92 2.52 9.08-.3 9.08-4.96v-8.45c0-2.01-1.02-3.88-2.71-4.96l-97.47-62.59c-1.94-1.25-4.42-1.25-6.37 0z" fill="url(#SVGID_41_)"></path><path d="m46 443.56h420v13.27h-420z" fill="url(#SVGID_42_)"></path><circle cx="257.37" cy="219.49" fill="url(#SVGID_43_)" r="29.19"></circle><circle cx="256" cy="218.12" fill="#fff" r="29.19"></circle><circle cx="256" cy="218.12" fill="url(#SVGID_44_)" r="25.7"></circle><path d="m230.96 220.04c0-14.19 11.5-25.7 25.7-25.7 10.98 0 20.33 6.9 24.01 16.59-3.11-10.69-12.96-18.51-24.66-18.51-14.19 0-25.7 11.5-25.7 25.7 0 3.21.62 6.27 1.69 9.1-.67-2.28-1.04-4.68-1.04-7.18z" fill="url(#SVGID_45_)"></path><path d="m230.89 443.51v-39.61c0-13.63 10.58-25.27 24.19-25.76 14.27-.51 26.03 10.94 26.03 25.1v40.28c0 .03-.02.05-.05.05h-50.12c-.03-.01-.05-.03-.05-.06z" fill="url(#SVGID_46_)"></path><path d="m276.4 443.56h-40.8v-45.12c0-8.23 6.68-14.91 14.91-14.91h10.99c8.23 0 14.91 6.68 14.91 14.91v45.12z" fill="url(#SVGID_47_)"></path></svg>