<svg xmlns="http://www.w3.org/2000/svg" height="55" viewBox="0 0 58 58" width="55"><g id="Page-1" fill="none" fill-rule="evenodd"><g id="048---Creative-Learning" fill-rule="nonzero"><path id="Shape" d="m32 52v3c0 1.6568542-1.3431458 3-3 3s-3-1.3431458-3-3v-3z" fill="#808b8c"></path><rect id="Rectangle-path" fill="#95a4a4" height="4" rx="2" width="10" x="24" y="50"></rect><g fill="#f8e8ab"><path id="Shape" d="m51 31h-4c-.5522847 0-1-.4477153-1-1s.4477153-1 1-1h4c.5522847 0 1 .4477153 1 1s-.4477153 1-1 1z"></path><path id="Shape" d="m11 31h-4c-.55228475 0-1-.4477153-1-1s.44771525-1 1-1h4c.5522847 0 1 .4477153 1 1s-.4477153 1-1 1z"></path><path id="Shape" d="m7.549 35.916c-.50844946.0007406-.93651336-.3801682-.99485226-.8852602-.0583389-.5050921.27162142-.9735538.76685226-1.0887398l3.9-.916c.5379253-.1261971 1.0763029.2075747 1.2025.7455s-.2075747 1.0763029-.7455 1.2025l-3.9.916c-.07515882.0169797-.15194763.0256981-.229.026z"></path><path id="Shape" d="m9.174 40.7c-.46785614.0043033-.87615513-.3163699-.98284933-.7719182s.11674121-.9241803.53784933-1.1280818l3.605-1.788c.4921738-.2307377 1.0785248-.0260682 1.3202048.4608258.2416799.486894.0501661 1.0776728-.4312048 1.3301742l-3.606 1.797c-.13791063.0672452-.28957556.101481-.443.1z"></path><path id="Shape" d="m11.789 45c-.4226875.0006744-.8001485-.2644864-.9428681-.662351-.1427196-.3978647-.0198703-.8424938.3068681-1.110649l3.129-2.569c.2763449-.2268636.6527285-.289066.9873706-.1631761.3346422.1258899.5767028.4207464.635.7735.0582973.3527535-.0760257.7098125-.3523706.9366761l-3.129 2.568c-.1787342.1466884-.4027785.2269061-.634.227z"></path><path id="Shape" d="m11.451 27c-.0770524-.0003019-.1538412-.0090203-.229-.026l-3.9-.916c-.53792535-.1261971-.87169707-.6645747-.7455-1.2025s.66457465-.8716971 1.2025-.7455l3.9.916c.4952308.115186.8251912.5836477.7668523 1.0887398-.0583389.505092-.4864028.8860008-.9948523.8852602z"></path><path id="Shape" d="m50.368 35.916c-.0770524-.0003019-.1538412-.0090203-.229-.026l-3.9-.916c-.5379253-.1261971-.8716971-.6645747-.7455-1.2025s.6645747-.8716971 1.2025-.7455l3.9.916c.4952308.115186.8251912.5836477.7668523 1.0887398-.0583389.505092-.4864028.8860008-.9948523.8852602z"></path><path id="Shape" d="m48.743 40.7c-.1534244.001481-.3050894-.0327548-.443-.1l-3.606-1.788c-.4813709-.2525014-.6728847-.8432802-.4312048-1.3301742.24168-.486894.828031-.6915635 1.3202048-.4608258l3.605 1.788c.4211081.2039015.6445435.6725335.5378493 1.1280818s-.5149932.7762215-.9828493.7719182z"></path><path id="Shape" d="m46.129 45c-.2312215-.0000939-.4552658-.0803116-.634-.227l-3.13-2.568c-.4271922-.3507008-.4892007-.9813077-.1384999-1.4085.3507008-.4271922.9813076-.4892008 1.4084999-.1385l3.13 2.569c.3267384.2681552.4495877.7127843.3068681 1.110649-.1427196.3978646-.5201806.6630254-.9428681.662351z"></path><path id="Shape" d="m46.466 27c-.5084495.0007406-.9365134-.3801682-.9948523-.8852602-.0583389-.5050921.2716215-.9735538.7668523-1.0887398l3.9-.916c.5379253-.1261971 1.0763029.2075747 1.2025.7455s-.2075747 1.0763029-.7455 1.2025l-3.9.916c-.0751588.0169797-.1519476.0256981-.229.026z"></path></g><path id="Shape" d="m44 16.7 4.16-1.48 2.772-.99 6.4-2.29c.3954845-.1435417.6588256-.5192718.6588256-.94s-.2633411-.7964583-.6588256-.94l-27.982-10c-.2264785-.07998655-.4735215-.07998655-.7 0l-27.982 10c-.39548448.1435417-.65882556.5192718-.65882556.94s.26334108.7964583.65882556.94l13.332 4.76z" fill="#393f4b"></path><path id="Shape" d="m44 13v9c0-1.66-6.72-3-15-3-2.03 0-3.97.08-5.74.23-5.43.45-9.26 1.52-9.26 2.77v-9c0-1.66 6.72-3 15-3s15 1.34 15 3z" fill="#464f5e"></path><path id="Shape" d="m50 15c-.5522847 0-1-.4477153-1-1v-6.56c0-.55228475.4477153-1 1-1s1 .44771525 1 1v6.56c0 .5522847-.4477153 1-1 1z" fill="#edc100"></path><path id="Shape" d="m48 16v3c0 .5522847.4477153 1 1 1h2c.5522847 0 1-.4477153 1-1v-3c0-1.1045695-.8954305-2-2-2s-2 .8954305-2 2z" fill="#f1d24b"></path><path id="Shape" d="m44 22c0 .74-1.34 1.42-3.56 1.94-1.4445967-2.0554241-3.4173483-3.682685-5.71-4.71 5.44.45 9.27 1.52 9.27 2.77z" fill="#393f4b"></path><path id="Shape" d="m43 32c.0013807 4.462163-2.127559 8.6568802-5.73 11.29-1.6675867 1.2495575-2.7887748 3.0943238-3.13 5.15-.1938877.919054-1.0108013 1.5725849-1.95 1.56h-6.38c-.9391987.0125849-1.7561123-.640946-1.95-1.56-.3412252-2.0556762-1.4624133-3.9004425-3.13-5.15-4.0184718-2.944464-6.1695372-7.8025378-5.6485581-12.7569868.520979-4.9544489 3.6355107-9.2588254 8.1785581-11.3030132 1.77-.15 3.71-.23 5.74-.23s3.96.08 5.73.23c2.2926517 1.027315 4.2654033 2.6545759 5.71 4.71.1.14.2.29.29.44.12.19.24.38.35.57 1.2643423 2.133734 1.9277854 4.5698142 1.92 7.05z" fill="#edc100"></path><path id="Shape" d="m19 33c-.5522847 0-1-.4477153-1-1-.0111358-3.4663438 1.6239866-6.7321352 4.406-8.8.2858125-.2143594.6642734-.2599565.9928203-.1196153s.5572656.4452995.6000001.8c.0427344.3547006-.1070079.705256-.3928204.9196153-2.2770288 1.6913026-3.6153946 4.3635803-3.606 7.2 0 .5522847-.4477153 1-1 1z" fill="#f8e8ab"></path><path id="Shape" d="m23.26 19.23c-2.2880498 1.0303516-4.2568283 2.6571844-5.7 4.71-2.22-.52-3.56-1.2-3.56-1.94 0-1.25 3.83-2.32 9.26-2.77z" fill="#393f4b"></path></g></g></svg>