<svg xmlns="http://www.w3.org/2000/svg" height="55" viewBox="0 0 58 58" width="55"><g id="Page-1" fill="none" fill-rule="evenodd"><g id="019---Student-With-Degree" fill-rule="nonzero"><path id="Shape" d="m50.03 39-23.03 1 9-7 11.23.8c1.5648636.1136748 2.7795184 1.411048 2.79 2.98z" fill="#854e9f"></path><path id="Shape" d="m33 40-23-1v-2.21c.001386-1.5743429 1.2195183-2.8797966 2.79-2.99l11.21-.8z" fill="#915da6"></path><path id="Shape" d="m44.75 11.55c-.1839835.2793852-.4954809.4482694-.83.45-.1966104.0023152-.3889872-.0571467-.55-.17-.8570487-.5649645-1.3720237-1.5234947-1.37-2.55l-.0000059-6.09 1.2600059.34c.4443621.10865355.7526198.51272108.74.97v4.78c.0001625.35850681.1805213.69292216.48.89.2206164.145718.3734668.3739343.4242339.6334108.0507672.2594764-.0048029.5284706-.1542339.7465892z" fill="#f1d24b"></path><ellipse id="Oval" cx="5" cy="45" fill="#e2be50" rx="5" ry="6"></ellipse><path id="Shape" d="m4.993 48c-.21649978.0008032-.42728207-.0694576-.6-.2-.88132045-.6609903-1.4-1.6983494-1.4-2.8s.51867955-2.1390097 1.4-2.8c.28581247-.2156098.66494054-.2623623.99457032-.1226463.32962979.1397159.55968269.4446742.6035.8.04381732.3553257-.10525785.7070365-.39107032.9226463-.38099206.2843103-.60466205.7323894-.60288751 1.2077673.00177453.4753779.2287835.9217747.61188751 1.2032327.33721514.2625878.47027313.7104585.33112738 1.1145685-.13914575.4041099-.51973301.6751189-.94712738.6744315z" fill="#af8e3d"></path><path id="Shape" d="m31 49v8c0 .5522847-.4477153 1-1 1h-4c-.5522847 0-1-.4477153-1-1v-8z" fill="#ba3a23"></path><path id="Shape" d="m58 45c0 3.31-2.24 6-5 6h-22c2.76 0 5-2.69 5-6s-2.24-6-5-6h22c2.76 0 5 2.69 5 6z" fill="#f8e8ab"></path><path id="Shape" d="m36 45c0 3.31-2.24 6-5 6h-6c2.76 0 5-2.69 5-6s-2.24-6-5-6h6c2.76 0 5 2.69 5 6z" fill="#e04c34"></path><path id="Shape" d="m30 45c0 3.31-2.24 6-5 6h-20c2.76 0 5-2.69 5-6s-2.24-6-5-6h20c2.76 0 5 2.69 5 6z" fill="#f8e8ab"></path><path id="Shape" d="m39 12c-.01.93-.04 1.68-.09 2.31.4387457-.3014453.9910914-.3861384 1.5-.23.94.34.47 3.44.47 3.44-.3589289 1.354262-1.2847184 2.4878074-2.54 3.11.2970406 2.0269565-.438435 4.0682765-1.96 5.44-.14.13-.26.26-.38.39-2.18 2.33-2.31 4.54-4.73 4.54h-2.54c-2.42 0-2.55-2.21-4.73-4.54-.12-.13-.24-.26-.38-.39-1.521565-1.3717235-2.2570406-3.4130435-1.96-5.44-1.2552816-.6221926-2.1810711-1.755738-2.54-3.11 0 0-.47-3.1.47-3.44.5134242-.1569643 1.0705435-.0684155 1.51.24-.06-.63-.09-1.39-.1-2.32z" fill="#fad5a9"></path><path id="Shape" d="m21.71 20.66-.05-.03" fill="#fad5a9"></path><path id="Shape" d="m36 26.46v6.54l-5.99 6-6.01-6v-6.54c2.18 2.33 2.31 4.54 4.73 4.54h2.54c2.42 0 2.55-2.21 4.73-4.54z" fill="#f6c58f"></path><path id="Shape" d="m39 6.62v5.38s-2.05 2-8.99 2-9.01-2-9.01-2v-5.38z" fill="#393f4b"></path><path id="Shape" d="m44 4.5c.0126198.45727892-.2956379.86134645-.74.97l-1.26.34-3 .81-8.75 2.35c-.1642682.03998702-.3357318.03998702-.5 0l-8.75-2.35-4.26-1.15c-.4448894-.11149979-.7568951-.51135113-.7568951-.97s.3120057-.85850021.7568951-.97l13.01-3.5c.1642682-.03998702.3357318-.03998702.5 0l11.75 3.16 1.26.34c.4443621.10865355.7526198.51272108.74.97z" fill="#464f5e"></path></g></g></svg>