<svg xmlns="http://www.w3.org/2000/svg" xmlns:xlink="http://www.w3.org/1999/xlink" height="60" viewBox="0 0 512 512" width="60"><linearGradient id="lg1"><stop offset="0" stop-color="#fdc830"></stop><stop offset="1" stop-color="#f37335"></stop></linearGradient><linearGradient id="SVGID_1_" gradientUnits="userSpaceOnUse" x1="34.956" x2="360.289" xlink:href="#lg1" y1="169.199" y2="276.932"></linearGradient><linearGradient id="SVGID_2_" gradientUnits="userSpaceOnUse" x1="104.159" x2="431.626" xlink:href="#lg1" y1="134.915" y2="411.715"></linearGradient><linearGradient id="SVGID_3_" gradientUnits="userSpaceOnUse" x1="136.729" x2="151.929" xlink:href="#lg1" y1="132.867" y2="143.268"></linearGradient><linearGradient id="lg2"><stop offset="0" stop-color="#8cc63f"></stop><stop offset="1" stop-color="#0b9560"></stop></linearGradient><linearGradient id="SVGID_4_" gradientUnits="userSpaceOnUse" x1="-10.382" x2="168.018" xlink:href="#lg2" y1="166.933" y2="270.933"></linearGradient><linearGradient id="SVGID_5_" gradientUnits="userSpaceOnUse" x1="73.077" x2="237.009" xlink:href="#lg2" y1="243.263" y2="279.21"></linearGradient><linearGradient id="lg3"><stop offset="0" stop-color="#f3dcfb"></stop><stop offset="1" stop-color="#679fe4"></stop></linearGradient><linearGradient id="SVGID_6_" gradientUnits="userSpaceOnUse" x1="118.843" x2="233.553" xlink:href="#lg3" y1="219.14" y2="264.739"></linearGradient><linearGradient id="SVGID_7_" gradientUnits="userSpaceOnUse" x1="113.169" x2="319.569" xlink:href="#lg3" y1="206.334" y2="378.334"></linearGradient><linearGradient id="SVGID_8_" gradientUnits="userSpaceOnUse" x1="79.578" x2="86.511" xlink:href="#lg3" y1="193.447" y2="196.114"></linearGradient><linearGradient id="SVGID_9_" gradientUnits="userSpaceOnUse" x1="-7.619" x2="-.419" xlink:href="#lg2" y1="230.627" y2="231.427"></linearGradient><linearGradient id="lg4"><stop offset="0" stop-color="#ff512f"></stop><stop offset="1" stop-color="#dd2476"></stop></linearGradient><linearGradient id="SVGID_10_" gradientUnits="userSpaceOnUse" x1="146.888" x2="459.955" xlink:href="#lg4" y1="160.296" y2="288.829"></linearGradient><linearGradient id="SVGID_11_" gradientTransform="matrix(.879 .031 .031 .992 36.969 -9.505)" gradientUnits="userSpaceOnUse" x1="203.97" x2="226.37" xlink:href="#lg4" y1="227.921" y2="229.121"></linearGradient><linearGradient id="SVGID_12_" gradientUnits="userSpaceOnUse" x1="270.87" x2="377.27" xlink:href="#lg4" y1="236.604" y2="268.604"></linearGradient><linearGradient id="SVGID_13_" gradientUnits="userSpaceOnUse" x1="256" x2="256" y1="335.256" y2="398.502"><stop offset="0" stop-color="#f3f7ff"></stop><stop offset="1" stop-color="#cdd9ff"></stop></linearGradient><path d="m313.34 373.39-63.61 5.64-22.89-258.29 63.62-5.64z" fill="url(#SVGID_1_)"></path><path d="m253.14 378.72-3.41.31-22.89-258.29 3.41-.31z" fill="url(#SVGID_2_)"></path><path d="m313.34 373.39-4.23.37-22.88-258.29 4.23-.37z" fill="url(#SVGID_3_)"></path><path d="m235.97 140.12h50.13v9.6h-50.13z" fill="#fff" transform="matrix(.996 -.088 .088 .996 -11.773 23.608)"></path><path d="m254.08 344.41h50.13v9.6h-50.13z" fill="#fff" transform="matrix(.996 -.088 .088 .996 -29.735 26.003)"></path><path d="m99.11 119.73h63.87v259.3h-63.87z" fill="url(#SVGID_4_)"></path><path d="m105.97 142.03h50.13v9.6h-50.13z" fill="#fff"></path><path d="m105.97 347.12h50.13v9.6h-50.13z" fill="#fff"></path><path d="m99.11 119.73h3.69v259.3h-3.69z" fill="url(#SVGID_5_)"></path><path d="m162.97 119.73h63.87v259.3h-63.87z" fill="url(#SVGID_6_)"></path><path d="m169.84 142.03h50.13v9.6h-50.13z" fill="#fff"></path><path d="m169.84 347.12h50.13v9.6h-50.13z" fill="#fff"></path><path d="m162.97 119.73h3.69v259.3h-3.69z" fill="url(#SVGID_7_)"></path><path d="m223.15 119.73h3.69v259.3h-3.69z" fill="url(#SVGID_8_)"></path><path d="m159.28 119.73h3.69v259.3h-3.69z" fill="url(#SVGID_9_)"></path><path d="m418.03 363.28-61.86 15.9-64.57-251.13 61.86-15.91z" fill="url(#SVGID_10_)"></path><path d="m418.03 363.28-4.18 1.07-64.57-251.13 4.18-1.08z" fill="url(#SVGID_11_)"></path><path d="m359.99 378.2-3.82.98-64.57-251.13 3.82-.99z" fill="url(#SVGID_12_)"></path><path d="m304.21 141.54h50.13v9.6h-50.13z" fill="#fff" transform="matrix(.969 -.249 .249 .969 -26.069 86.602)"></path><path d="m355.28 340.18h50.13v9.6h-50.13z" fill="#fff" transform="matrix(.969 -.249 .249 .969 -73.922 105.575)"></path><path d="m46 379.03h420v20.83h-420z" fill="url(#SVGID_13_)"></path></svg>